<svg version="1.0" xmlns="http://www.w3.org/2000/svg" width="512.000000pt" height="512.000000pt" viewBox="0 0 512.000000 512.000000" preserveAspectRatio="xMidYMid meet">
    <g transform="translate(0.000000,512.000000) scale(0.100000,-0.100000)"
        fill="#000000" stroke="none">
            <path d="M2985 4833 c-40 -21 -74 -52 -90 -83 -7 -14 -43 -126 -79 -250 -37
            -124 -72 -240 -77 -257 l-11 -33 -622 0 c-690 0 -687 0 -763 -64 -23 -21 -49
            -57 -63 -88 -41 -94 -15 -233 60 -329 l30 -37 30 -324 c17 -178 41 -440 55
            -583 13 -143 34 -361 45 -485 11 -124 30 -319 41 -435 29 -314 88 -950 94
            -1030 10 -121 24 -164 66 -206 21 -21 55 -42 76 -48 55 -16 1528 -15 1574 0
            50 17 94 53 112 92 13 26 42 300 117 1108 55 591 118 1264 140 1497 l40 423
            30 37 c75 94 100 227 60 320 -14 31 -40 67 -63 88 -61 52 -117 64 -289 64 -81
            0 -148 3 -148 6 0 3 23 83 52 177 59 195 64 242 27 306 -32 57 -79 83 -221
            120 -130 35 -179 38 -223 14z m155 -223 c41 -12 80 -23 87 -25 9 -3 7 -19 -7
            -62 -10 -32 -46 -144 -79 -250 -34 -106 -64 -199 -67 -208 -5 -13 23 -15 248
            -15 277 0 282 -1 313 -60 8 -16 15 -50 15 -76 0 -39 -5 -51 -32 -78 -18 -18
            -39 -35 -47 -37 -15 -5 -19 -37 -76 -659 -14 -151 -37 -387 -50 -525 -14 -137
            -43 -446 -65 -685 -22 -239 -44 -478 -50 -530 -9 -83 -60 -627 -60 -637 0 -2
            -327 -2 -727 -1 l-728 3 -7 75 c-5 41 -30 314 -58 605 -27 292 -52 555 -55
            585 -19 191 -80 845 -105 1115 -17 176 -37 387 -45 469 -8 82 -15 157 -15 166
            0 11 -10 20 -24 24 -58 15 -92 114 -61 180 33 69 1 66 744 66 l670 0 50 158
            c27 86 69 218 92 294 24 77 47 135 53 133 6 -2 45 -13 86 -25z"/>
            <path d="M2104 2300 c-34 -13 -64 -59 -64 -97 0 -30 3 -34 23 -31 16 2 23 11
            25 33 8 79 105 71 114 -10 4 -38 35 -47 43 -12 10 40 -19 96 -59 112 -40 17
            -52 17 -82 5z"/>
            <path d="M2943 2295 c-38 -16 -53 -42 -53 -89 0 -29 4 -36 20 -36 15 0 20 7
            20 25 0 29 32 65 58 65 30 0 53 -24 61 -60 8 -43 35 -47 39 -6 5 44 -17 87
            -54 102 -41 17 -50 17 -91 -1z"/>
            <path d="M2393 2244 c-9 -24 5 -112 24 -152 28 -56 74 -82 147 -82 75 0 117
            23 146 80 22 44 37 128 27 154 -5 14 -17 11 -73 -19 -37 -20 -80 -35 -99 -35
            -19 0 -62 15 -99 35 -56 30 -68 33 -73 19z"/>
    </g>
</svg>